<mxfile host="app.diagrams.net" modified="2023-01-04T08:03:17.649Z" agent="5.0 (Macintosh; Intel Mac OS X 10_15_7) AppleWebKit/537.36 (KHTML, like Gecko) Chrome/108.0.0.0 Whale/3.18.154.7 Safari/537.36" version="20.7.4" etag="EvXS9ixpzzvlveI6Cejn" type="github">
  <diagram id="rQKMFvDN-5XR97tvGXt8" name="페이지-1">
    <mxGraphModel dx="1148" dy="648" grid="1" gridSize="10" guides="1" tooltips="1" connect="1" arrows="1" fold="1" page="1" pageScale="1" pageWidth="827" pageHeight="1169" math="0" shadow="0">
      <root>
        <mxCell id="0" />
        <mxCell id="1" parent="0" />
        <mxCell id="G-DJe9Chft_Y5kZSpjOI-29" value="" style="rounded=1;whiteSpace=wrap;html=1;fillColor=#d5e8d4;strokeColor=#82b366;" vertex="1" parent="1">
          <mxGeometry x="40" y="70" width="360" height="340" as="geometry" />
        </mxCell>
        <mxCell id="G-DJe9Chft_Y5kZSpjOI-22" style="edgeStyle=none;rounded=0;orthogonalLoop=1;jettySize=auto;html=1;entryX=0;entryY=0.5;entryDx=0;entryDy=0;" edge="1" parent="1" source="G-DJe9Chft_Y5kZSpjOI-18" target="G-DJe9Chft_Y5kZSpjOI-19">
          <mxGeometry relative="1" as="geometry" />
        </mxCell>
        <mxCell id="G-DJe9Chft_Y5kZSpjOI-27" style="edgeStyle=orthogonalEdgeStyle;rounded=0;orthogonalLoop=1;jettySize=auto;html=1;entryX=0;entryY=0.5;entryDx=0;entryDy=0;" edge="1" parent="1" source="G-DJe9Chft_Y5kZSpjOI-18" target="G-DJe9Chft_Y5kZSpjOI-20">
          <mxGeometry relative="1" as="geometry">
            <Array as="points">
              <mxPoint x="100" y="230" />
            </Array>
          </mxGeometry>
        </mxCell>
        <mxCell id="G-DJe9Chft_Y5kZSpjOI-18" value="trad" style="rounded=1;whiteSpace=wrap;html=1;" vertex="1" parent="1">
          <mxGeometry x="70" y="120" width="60" height="60" as="geometry" />
        </mxCell>
        <mxCell id="G-DJe9Chft_Y5kZSpjOI-28" style="edgeStyle=orthogonalEdgeStyle;rounded=0;orthogonalLoop=1;jettySize=auto;html=1;entryX=1;entryY=0.5;entryDx=0;entryDy=0;" edge="1" parent="1" source="G-DJe9Chft_Y5kZSpjOI-19" target="G-DJe9Chft_Y5kZSpjOI-21">
          <mxGeometry relative="1" as="geometry">
            <Array as="points">
              <mxPoint x="370" y="150" />
              <mxPoint x="370" y="310" />
            </Array>
          </mxGeometry>
        </mxCell>
        <mxCell id="G-DJe9Chft_Y5kZSpjOI-19" value="slip(채권)&lt;br&gt;(type=bond)" style="rounded=1;whiteSpace=wrap;html=1;" vertex="1" parent="1">
          <mxGeometry x="230" y="120" width="100" height="60" as="geometry" />
        </mxCell>
        <mxCell id="G-DJe9Chft_Y5kZSpjOI-20" value="slip(수수료매출)&lt;br&gt;(type=fee_sales)" style="rounded=1;whiteSpace=wrap;html=1;" vertex="1" parent="1">
          <mxGeometry x="230" y="200" width="100" height="60" as="geometry" />
        </mxCell>
        <mxCell id="G-DJe9Chft_Y5kZSpjOI-32" style="edgeStyle=orthogonalEdgeStyle;rounded=0;orthogonalLoop=1;jettySize=auto;html=1;entryX=-0.008;entryY=0.963;entryDx=0;entryDy=0;entryPerimeter=0;" edge="1" parent="1" source="G-DJe9Chft_Y5kZSpjOI-21" target="G-DJe9Chft_Y5kZSpjOI-24">
          <mxGeometry relative="1" as="geometry">
            <Array as="points">
              <mxPoint x="280" y="369" />
            </Array>
          </mxGeometry>
        </mxCell>
        <mxCell id="G-DJe9Chft_Y5kZSpjOI-21" value="slip(지급 &amp;amp; 상계)&lt;br&gt;(type=withdraw,&lt;br&gt;type=set_off)" style="rounded=1;whiteSpace=wrap;html=1;" vertex="1" parent="1">
          <mxGeometry x="230" y="280" width="100" height="60" as="geometry" />
        </mxCell>
        <mxCell id="G-DJe9Chft_Y5kZSpjOI-24" value="NEON&lt;br&gt;(네이버 회계시스템)" style="rounded=1;whiteSpace=wrap;html=1;" vertex="1" parent="1">
          <mxGeometry x="510" y="80" width="120" height="300" as="geometry" />
        </mxCell>
        <mxCell id="G-DJe9Chft_Y5kZSpjOI-30" value="DCB BATCH" style="text;html=1;strokeColor=none;fillColor=none;align=center;verticalAlign=middle;whiteSpace=wrap;rounded=0;" vertex="1" parent="1">
          <mxGeometry x="150" y="40" width="140" height="30" as="geometry" />
        </mxCell>
      </root>
    </mxGraphModel>
  </diagram>
</mxfile>
